<svg viewBox="0 0 32 32" xmlns="http://www.w3.org/2000/svg"><path fill="#FBFAF7" d="M0 0h32v32H0z"/><g fill="#161718"><path d="M21.827 5.488c.081.061.139.108.2.152.474.341.928.711 1.229 1.218.162.272.22.607.384.878.164.269.432.474.599.74.275.441.306.932.171 1.432-.15.552-.315 1.102-.453 1.658-.044.174-.025.363-.037.61.146-.095.238-.153.328-.214.374-.253.748-.171.933.238.336.744.363 1.838-.391 2.479-.259.222-.55.405-.822.611-.05.039-.096.104-.11.166-.295 1.273-.953 2.391-1.54 3.537-.122.239-.37.414-.553.625-.159.183-.306.375-.497.611.327.078.601.143.875.207.056.014.124.001.168.031.335.223.704.199 1.08.168.325-.026.63.026.864.289.035.039.1.056.155.068 1.082.257 1.676.939 1.892 2.029.276 1.396.438 2.804.566 4.217.05.535.105 1.07.147 1.606.016.203.004.41.004.627h-.483v-1.684a3 3 0 0 0-.094-.011c-.017.099-.048.198-.05.297-.004.444-.002.887-.002 1.37h-1.664c-.02-.08-.044-.181-.068-.282-.013.001-.025.003-.036.004-.008.097-.015.193-.023.313-.178 0-.357.015-.531-.003-.272-.027-.331-.176-.173-.395.015-.021.024-.049.036-.075-.335-.113-.382-.063-.436.476-.271-.016-.543-.033-.849-.052.032-.365.069-.711.092-1.058.094-1.43.198-2.86.272-4.293.047-.922.045-1.848.073-2.773.007-.176-.063-.271-.225-.306-.596-.129-1.191-.259-1.788-.378-.06-.012-.152.031-.201.078-.348.339-.693.683-1.032 1.033-.056.058-.088.146-.109.226-.128.471-.243.943-.375 1.413-.21.754-.572 1.412-1.18 1.931-.353.303-.655.666-1.016.958-.256.208-.564.363-.866.503-.107.05-.288.031-.399-.027-1.239-.655-2.214-1.611-2.981-2.765-.495-.743-.901-1.546-1.345-2.322-.018-.031-.048-.067-.044-.097.045-.337-.224-.505-.389-.726-.304-.406-.617-.807-.939-1.227-.476.236-.964.478-1.449.72-.213.106-.421.219-.637.314-.138.059-.191.14-.184.291.051 1.081.101 2.162.142 3.244.04 1.103.066 2.206.103 3.31.019.565.041 1.131.073 1.697.012.21-.057.313-.289.289-.041-.158-.043-.36-.298-.348-.028.001-.067-.082-.09-.131-.03-.058-.049-.124-.112-.174v.59c-.295.133-.3.13-.427-.207-.158.125-.359.01-.396-.24-.047-.326-.082-.654-.121-.981-.034-.283-.069-.567-.139-.855-.01.028-.025.055-.026.082-.019.675.014 1.346.137 2.012.02.105.085.233-.091.279-.173.044-.202-.08-.242-.198-.017-.046-.042-.088-.071-.148-.056.031-.101.059-.15.083-.182.094-.284.043-.315-.155-.05-.332-.1-.665-.196-1.002-.008.068-.021.136-.02.204.002.287.016.574.01.861-.005.328-.028.341-.395.331-.004-.074-.01-.148-.01-.223 0-1.176-.067-2.357.021-3.526.066-.877.013-1.747.056-2.619.009-.157.025-.314.053-.469.115-.627.418-1.125 1.01-1.411.841-.406 1.688-.805 2.53-1.215.443-.216.88-.447 1.33-.678-.027-.07-.043-.123-.068-.171-.344-.672-.498-1.386-.473-2.139.011-.336.01-.336-.317-.319-.825.045-1.528-.373-1.864-1.131-.077-.172-.119-.369-.132-.557-.037-.602-.052-1.205.099-1.797.128-.496.362-.929.739-1.287.187-.176.398-.206.631-.201.049.001.097-.005.135-.007-.071-.389-.177-.765-.198-1.145-.025-.476.023-.958.033-1.437.003-.152-.03-.307-.022-.459.017-.325.008-.659.085-.972.179-.74.662-1.291 1.22-1.78.523-.458 1.053-.909 1.58-1.362.043-.036.089-.074.139-.101.853-.439 1.701-.891 2.564-1.312.7-.34 1.443-.554 2.22-.639.215-.024.409-.012.593.119.121.087.261.147.39.226.124.075.232.135.395.065.128-.057.275-.035.353.144.04.091.129.171.214.232.419.299.851.575 1.335.763.153.059.302.13.447.208.115.062.189.04.241-.075.161-.359.32-.718.481-1.077.061-.137.107-.283.188-.409.053-.082.145-.16.236-.191.073-.024.2-.004.25.048.048.05.053.175.028.251-.108.319-.234.631-.353.947-.024.064-.042.13-.024.231.068-.039.141-.072.203-.118.342-.257.706-.471 1.143-.506.078-.007.229.041.23.068.004.108-.002.257-.069.321-.24.226-.506.424-.761.632-.042.034-.083.067-.116.15.182 0 .365-.017.545.004.211.025.421.069.624.133.067.022.161.136.151.193-.014.079-.101.176-.179.207-.299.118-.608.212-.912.319-.051.017-.097.05-.178.091zM9.889 14.916c-.015.049-.025.068-.025.087.005.767 0 1.535.021 2.302.019.655.153 1.275.6 1.8.239.283.449.597.636.917.626 1.067 1.658 1.518 2.769 1.839.278.08.58.091.872.104.731.033 1.469.121 2.191.052.757-.073 1.499-.303 2.247-.465.143-.03.24-.108.284-.257.044-.158.159-.197.318-.184.077.005.183-.025.233-.079.454-.488.903-.981 1.343-1.481.185-.21.387-.42.508-.665.451-.92.872-1.853 1.301-2.783.032-.067.045-.142.085-.275-.111.057-.174.075-.214.114-.546.526-1.238.679-1.952.813-.598.112-1.052-.066-1.421-.527a.87.87 0 0 0-.152-.151c-.129-.101-.254-.213-.396-.292-.677-.38-1.108-.944-1.265-1.701-.054-.26-.04-.534-.061-.862-.623.067-1.244.135-1.844.2.022.258.106.49.046.674-.217.657-.444 1.322-1.061 1.738-.161.107-.322.215-.489.313-1.547.905-3.2.412-4.122-.649-.155-.178-.288-.372-.451-.582zm-.22-5.423c-.048.881-.093 1.715-.143 2.603.193-.247.319-.46.493-.622.266-.248.574-.45.85-.689.25-.215.545-.335.857-.356.44-.031.885.01 1.329 0 .701-.017 1.251.285 1.744.753.446.423.66.964.847 1.523.056.167.119.218.305.169.567-.149 1.139-.289 1.737-.243.05.004.133-.085.157-.148.184-.474.349-.955.541-1.426.043-.104.154-.207.258-.252.571-.249 1.176-.369 1.795-.398 1.059-.051 2.059.118 2.9.834.022.019.058.021.115.041-.057-.33-.104-.634-.169-.933-.019-.083-.08-.192-.151-.224-.64-.283-1.173-.72-1.677-1.186-.209-.195-.408-.436-.522-.695-.287-.647-.523-1.316-.78-1.977-.022-.056-.055-.108-.091-.18-.077.064-.136.105-.184.155-.296.313-.595.62-.881.942-.411.463-.832.91-1.401 1.186-.645.313-1.288.628-1.932.941-.639.311-1.305.503-2.023.503-.249 0-.499.044-.749.069-1.083.109-2.162.177-3.225-.389zm1.484 1.884c-.048.02-.152.033-.216.092-.206.188-.415.379-.588.597-.117.146-.245.336-.247.508-.005.513-.006 1.038.093 1.538.127.652.572 1.105 1.141 1.437.518.302 1.095.422 1.665.552.158.036.35.002.505-.055.436-.162.818-.406 1.095-.796.306-.435.49-.917.607-1.435.083-.362.066-.699-.128-1.014-.174-.279-.358-.554-.559-.813-.607-.774-1.416-1.136-2.393-1.15-.285-.006-.49.113-.595.37-.066.16-.155.234-.379.17zm12.042 2.845h-.026c0-.122.002-.244 0-.366-.013-.758-.16-1.492-.42-2.205-.061-.167-.155-.273-.336-.32-.319-.081-.64-.162-.948-.278-.5-.188-1.007-.15-1.517-.083-.086.011-.183.056-.245.116-.43.416-.81.871-1.063 1.42-.393.855-.255 1.756.453 2.373.415.363.913.633 1.383.931.246.154.531.186.812.122.432-.1.859-.223 1.289-.329.378-.093.581-.303.615-.693.019-.228.003-.458.003-.687zm-10.084 7.87c-.011.017-.021.034-.032.051.58.679 1.149 1.369 1.747 2.033.328.363.733.643 1.205.801.087.029.228.026.293-.025.877-.69 1.644-1.472 2.064-2.534.022-.055.033-.113.064-.222-.916.246-1.8.302-2.7.266-.894-.035-1.789-.024-2.64-.369zm-4.032-9.066c-.083-.286-.188-.569-.452-.765-.136-.101-.251-.105-.382.015-.258.242-.427.536-.528.87-.189.628-.201 1.274-.119 1.916.08.62.523 1.062 1.135 1.202.351.08.688-.189.665-.548-.041-.643-.1-1.285-.143-1.927-.008-.129-.062-.186-.182-.183-.226.007-.457.005-.681.033-.165.02-.245-.059-.293-.187-.05-.136.041-.202.155-.231.268-.068.537-.126.826-.194zm7.898-9.322c-.113 0-.239-.033-.338.005-.768.292-1.533.598-2.297.903-.047.019-.117.064-.119.101-.012.215-.17.279-.33.351-.878.395-1.647.949-2.343 1.61-.035.034-.06.075-.09.113 1.697-1.288 3.668-2.06 5.516-3.083zm7.055 11.122c.021.019.043.039.064.059.173-.172.356-.336.518-.518.508-.567.36-1.512.159-1.933-.079-.164-.21-.196-.354-.089-.232.176-.319.435-.431.743.202-.046.348-.109.49-.103.116.006.293.065.33.151.064.147-.055.265-.214.311-.13.036-.262.071-.394.104-.131.032-.189.087-.146.241.095.343.123.691-.023 1.034zM13.451 7.947c1.414-.732 2.871-1.385 4.134-2.371-1.529.531-2.914 1.311-4.134 2.371m4.754-1.306-.047-.058c-.127.099-.255.197-.382.296-.386.296-.753.618-1.162.878s-.863.449-1.291.684c-.279.152-.546.328-.819.493.012.019.025.039.038.059 1.384-.53 2.666-1.22 3.664-2.351zm-2.308-3.146c-.007-.029-.015-.058-.022-.089-.177.034-.404.011-.52.114-.137.119-.254.142-.41.148-.121.004-.241.035-.358.068-.682.193-1.232.631-1.827.985-.005.002.002.023.006.061 1.049-.431 2.09-.859 3.131-1.287m-1.41 3.027c-1.121.633-2.124 1.414-2.983 2.381.207-.09.406-.2.569-.346.431-.386.834-.806 1.274-1.181.361-.308.759-.571 1.14-.854m8.076 2.141c.02-.018.039-.036.058-.054-.342-.465-.687-.928-1.031-1.391-.03.017-.06.035-.09.053.179.376.34.76.542 1.123.102.184.301.275.521.269M17.755 4.97c.279-.126.542-.233.791-.367.052-.028.052-.153.076-.233-.097-.015-.203-.064-.285-.038-.141.045-.26.149-.398.209-.172.076-.232.195-.184.429m6.271 19.367c.048-.696.175-1.39.081-2.088-.027 0-.055-.001-.081-.001zm-.233-15.666c.045.201.058.416.142.598.106.228.061.406-.057.601-.047.078-.052.18-.076.271.374-.307.366-1.157-.008-1.47zm-4.295-3.876c-.154-.075-.229-.114-.306-.147-.125-.052-.19.007-.214.127-.04.196-.078.395-.124.628.21-.198.405-.383.644-.608M5.511 23.555c.09-.486.179-.972.268-1.458-.287.451-.312.951-.268 1.458M19.612 4.864l-.03.033c.016.02.029.041.048.058.258.229.261.258.08.547-.063.102-.116.209-.173.314.021.012.041.025.061.038.168-.198.334-.394.519-.611-.185-.137-.345-.258-.505-.378zM7.716 25.719c.025-.001.05-.003.076-.004l-.081-1.697c-.02.001-.041.003-.062.004.022.565.045 1.131.067 1.697M22.899 9.431a.6.6 0 0 1 .051-.04c-.055-.146-.11-.293-.174-.461-.113.091-.193.154-.295.235.157.101.287.183.418.266M6.898 27.613l.081.003c-.023-.416-.045-.833-.068-1.249h-.012v1.246zm.32-6.417c-.319-.026-.447.042-.546.29.202-.071.408-.068.546-.29M23.259 8.743c.036-.39-.067-.54-.322-.495.103.159.201.309.322.495m-13.287.346.035.089c.092-.023.241-.019.269-.074.058-.12-.034-.21-.161-.264-.053.091-.098.17-.143.249"/><path d="M5.746 22.399c-.085.467-.171.932-.257 1.399m9.314-2.316c-.844.012-1.691 0-2.516-.219-.173-.046-.327-.16-.493-.236-.109-.05-.23-.076-.337-.129-.068-.034-.137-.092-.168-.157-.013-.028.058-.131.11-.148.151-.054.183-.13.13-.281-.019-.054.02-.151.064-.201.156-.179.383-.19.599-.235 1.19-.249 2.383-.482 3.563-.769 1.359-.331 2.736-.465 4.127-.476.228-.002.458.066.684.115.124.027.169.116.151.249-.036.258-.044.522-.091.777-.017.089-.098.206-.177.234-1.366.484-2.735.957-4.104 1.429-.089.031-.189.044-.284.044-.419.004-.838.002-1.258.002zm3.184-.984c.002-.023.005-.046.008-.069-.12-.06-.238-.165-.361-.172-.968-.056-1.825.241-2.575.852-.003.002.001.012.004.052 1.018-.043 1.965-.379 2.924-.662zm-.465-1.288c-.011-.019-.02-.038-.031-.057-.301.049-.605.092-.904.15-.083.015-.222.076-.222.115.002.095.045.222.117.272.091.066.238.116.34.091.319-.078.54-.295.7-.571m-1.636.271c-.246.054-.476.109-.709.152-.121.023-.212.077-.153.198.044.089.146.199.231.207.201.02.561-.309.631-.557m-2.302.501c.273.215.523.296.814.17.152-.066.202-.166.127-.338-.303.054-.601.107-.941.167zm-.82.646c.211.04.381.048.531.107.202.079.35.011.493-.09-.181-.099-.36-.201-.542-.294-.04-.02-.111-.028-.143-.005-.11.077-.209.17-.339.282m5.344-1.497c.079.197.185.286.37.28.242-.011.441-.128.519-.327-.028-.003-.054-.012-.08-.009-.259.017-.519.035-.809.056m1.44-.093c.033.128.059.23.099.384.134-.134.235-.236.337-.338-.013-.016-.026-.03-.038-.046zm-4.768-2.094c0 .129-.008.258.003.386.015.181.135.262.28.16.249-.177.49-.151.754-.068.15.047.309.061.466.086.312.048.607.036.879-.17.192-.145.413-.238.644-.038.126-.121.199-.233.114-.403-.026-.052-.033-.17-.013-.179.083-.038.183-.068.27-.056.055.007.14.096.139.145-.005.305-.047.605-.274.838-.092.093-.186.134-.294.008-.116-.133-.266-.14-.413-.059-.175.095-.344.201-.513.306-.113.069-.208.06-.342.024-.361-.099-.734-.165-1.106-.207-.116-.013-.26.078-.367.153-.279.2-.45.144-.495-.193-.027-.196-.046-.399-.025-.596.007-.071.14-.129.215-.193.027.018.053.038.078.057zm1.812-2.398c-.003-.041-.022-.093-.004-.122.032-.054.08-.114.135-.13.026-.009.112.067.119.113.09.549.173 1.097.247 1.648.007.048-.053.144-.097.153-.134.03-.273.002-.303-.161-.028-.154-.025-.315-.034-.473-.02-.343-.039-.686-.058-1.029h-.005zm-4.999.896c.107-.193.268-.209.438-.201.159.008.317.023.473.015.054-.003.104-.071.155-.11-.062-.042-.123-.118-.187-.121-.177-.008-.355.027-.533.027-.469 0-.756-.246-.844-.708-.031-.163-.051-.327-.09-.487-.064-.26.029-.45.23-.612.274-.22.593-.32.933-.344.239-.018.481-.002.721.005.319.012.499.216.544.501.051.321.058.654.048.981-.005.178-.093.332-.295.408-.07.026-.131.153-.146.243-.1.573-.095.574-.667.567-.265-.003-.537.024-.78-.164m1.485-1.371c-.026-.184-.049-.367-.081-.55-.025-.15-.104-.253-.273-.249-.232.005-.468-.011-.696.024-.492.078-.71.482-.547.94.089.25.254.405.51.394.269-.012.536-.075.801-.132.224-.048.316-.199.286-.428zm7.078 1.354c.414.143.767.277 1.158.147.05-.017.162.011.173.042.02.06.012.157-.026.205-.137.173-.338.272-.545.236-.369-.064-.735-.162-1.089-.284-.083-.028-.148-.21-.155-.326-.008-.124-.05-.178-.146-.235-.421-.247-.66-.607-.681-1.106-.008-.175.04-.314.159-.446.142-.156.346-.299.222-.569-.01-.023.06-.101.107-.129.245-.147.515-.193.795-.158.326.044.653.092.977.153.391.073.66.495.564.89-.089.367-.192.73-.304 1.091-.022.07-.108.142-.18.169-.272.095-.55.172-.826.256-.051.016-.101.033-.203.065zm.166-.489c.102-.024.283-.061.461-.111.049-.012.115-.049.129-.09.104-.303.232-.603.281-.915.046-.29-.047-.376-.332-.483-.122-.046-.248-.082-.37-.127-.371-.139-.659-.009-.887.284-.099.129-.181.274-.252.422-.036.075-.056.181-.031.257.158.494.394.749 1.001.763"/><path d="M12.277 14.099c-.09-.092-.149-.153-.209-.214.08-.063.153-.155.243-.179.04-.01.162.114.163.179.002.06-.107.123-.197.214m8.21-.223c-.001.203-.076.267-.208.257-.109-.01-.217-.023-.21-.184.006-.181.147-.189.256-.189.064-.001.128.091.161.116z"/></g></svg>