<?xml version="1.0" encoding="UTF-8" standalone="no"?>
<!DOCTYPE svg PUBLIC "-//W3C//DTD SVG 1.1//EN" "http://www.w3.org/Graphics/SVG/1.1/DTD/svg11.dtd">
<svg width="100%" height="100%" viewBox="0 0 32 32" version="1.1" xmlns="http://www.w3.org/2000/svg" xmlns:xlink="http://www.w3.org/1999/xlink" xml:space="preserve" xmlns:serif="http://www.serif.com/" style="fill-rule:evenodd;clip-rule:evenodd;stroke-linecap:round;stroke-linejoin:round;stroke-miterlimit:1.5;">
    <path d="M31.19,3.863l0,24.274c0,1.685 -1.368,3.053 -3.053,3.053l-24.274,0c-1.685,0 -3.053,-1.368 -3.053,-3.053l-0,-24.274c-0,-1.685 1.368,-3.053 3.053,-3.053l24.274,-0c1.685,-0 3.053,1.368 3.053,3.053Z" style="fill:#fbfaf7;stroke:#000;stroke-width:1px;"/>
    <g>
        <path d="M21.319,5.996c0.077,0.058 0.133,0.103 0.191,0.145c0.451,0.324 0.883,0.676 1.169,1.159c0.154,0.259 0.21,0.577 0.366,0.835c0.156,0.256 0.411,0.451 0.57,0.705c0.261,0.419 0.291,0.887 0.162,1.362c-0.142,0.526 -0.299,1.049 -0.431,1.578c-0.042,0.166 -0.023,0.346 -0.035,0.581c0.139,-0.091 0.227,-0.146 0.312,-0.204c0.356,-0.241 0.712,-0.163 0.888,0.227c0.32,0.708 0.346,1.749 -0.372,2.359c-0.246,0.211 -0.523,0.385 -0.782,0.581c-0.048,0.037 -0.092,0.099 -0.105,0.158c-0.281,1.212 -0.907,2.276 -1.465,3.366c-0.117,0.228 -0.353,0.394 -0.527,0.595c-0.151,0.174 -0.291,0.357 -0.473,0.582c0.311,0.074 0.572,0.136 0.833,0.197c0.053,0.013 0.118,0.001 0.16,0.029c0.319,0.212 0.67,0.19 1.028,0.16c0.309,-0.025 0.599,0.025 0.822,0.275c0.033,0.037 0.095,0.053 0.147,0.065c1.03,0.244 1.595,0.893 1.801,1.931c0.263,1.328 0.417,2.668 0.539,4.013c0.047,0.509 0.1,1.018 0.14,1.528c0.015,0.194 0.003,0.391 0.003,0.597l-0.459,0l0,-1.603c-0.03,-0.003 -0.06,-0.007 -0.09,-0.01c-0.016,0.094 -0.045,0.188 -0.047,0.283c-0.004,0.422 -0.002,0.844 -0.002,1.303l-1.584,0c-0.019,-0.076 -0.042,-0.172 -0.065,-0.268c-0.012,0.001 -0.023,0.003 -0.034,0.004c-0.007,0.092 -0.014,0.184 -0.022,0.298c-0.169,0 -0.339,0.014 -0.505,-0.003c-0.259,-0.026 -0.315,-0.168 -0.165,-0.376c0.015,-0.02 0.023,-0.047 0.035,-0.071c-0.319,-0.108 -0.364,-0.06 -0.415,0.453c-0.258,-0.016 -0.517,-0.032 -0.808,-0.05c0.03,-0.347 0.065,-0.677 0.087,-1.007c0.09,-1.361 0.189,-2.722 0.259,-4.085c0.045,-0.878 0.043,-1.759 0.07,-2.639c0.006,-0.168 -0.06,-0.258 -0.215,-0.292c-0.567,-0.122 -1.133,-0.246 -1.701,-0.359c-0.057,-0.012 -0.145,0.029 -0.191,0.074c-0.332,0.323 -0.66,0.65 -0.983,0.983c-0.053,0.055 -0.083,0.139 -0.103,0.215c-0.122,0.448 -0.232,0.898 -0.357,1.345c-0.2,0.717 -0.545,1.344 -1.123,1.838c-0.336,0.288 -0.624,0.633 -0.967,0.911c-0.244,0.198 -0.537,0.346 -0.824,0.479c-0.102,0.048 -0.274,0.029 -0.38,-0.026c-1.179,-0.623 -2.107,-1.533 -2.837,-2.631c-0.471,-0.707 -0.857,-1.471 -1.28,-2.21c-0.017,-0.029 -0.046,-0.064 -0.042,-0.092c0.043,-0.321 -0.213,-0.481 -0.37,-0.691c-0.289,-0.387 -0.587,-0.768 -0.894,-1.168c-0.453,0.225 -0.917,0.455 -1.379,0.685c-0.202,0.101 -0.4,0.209 -0.606,0.299c-0.131,0.056 -0.182,0.133 -0.175,0.277c0.049,1.029 0.096,2.058 0.135,3.087c0.038,1.05 0.063,2.1 0.098,3.15c0.018,0.538 0.039,1.077 0.07,1.615c0.011,0.2 -0.055,0.298 -0.275,0.275c-0.039,-0.15 -0.041,-0.342 -0.284,-0.331c-0.027,0.001 -0.064,-0.078 -0.086,-0.124c-0.028,-0.056 -0.046,-0.118 -0.106,-0.166l-0,0.561c-0.281,0.127 -0.286,0.124 -0.407,-0.197c-0.15,0.119 -0.341,0.01 -0.376,-0.228c-0.045,-0.31 -0.078,-0.622 -0.116,-0.934c-0.032,-0.269 -0.065,-0.539 -0.132,-0.813c-0.009,0.026 -0.024,0.052 -0.025,0.078c-0.018,0.642 0.014,1.281 0.131,1.915c0.019,0.1 0.081,0.221 -0.087,0.265c-0.164,0.042 -0.192,-0.076 -0.23,-0.188c-0.016,-0.044 -0.04,-0.084 -0.068,-0.141c-0.053,0.029 -0.096,0.056 -0.142,0.079c-0.174,0.089 -0.271,0.041 -0.3,-0.148c-0.048,-0.316 -0.095,-0.633 -0.187,-0.953c-0.007,0.064 -0.02,0.129 -0.019,0.194c0.002,0.273 0.015,0.546 0.01,0.819c-0.005,0.312 -0.027,0.325 -0.376,0.315c-0.004,-0.07 -0.01,-0.141 -0.01,-0.212c-0,-1.119 -0.063,-2.243 0.02,-3.356c0.063,-0.834 0.013,-1.662 0.054,-2.492c0.008,-0.149 0.023,-0.299 0.05,-0.446c0.109,-0.597 0.398,-1.071 0.961,-1.343c0.801,-0.387 1.607,-0.766 2.408,-1.156c0.422,-0.206 0.837,-0.426 1.266,-0.646c-0.026,-0.066 -0.041,-0.117 -0.065,-0.162c-0.327,-0.64 -0.474,-1.319 -0.45,-2.036c0.01,-0.32 0.009,-0.32 -0.302,-0.304c-0.785,0.043 -1.454,-0.355 -1.774,-1.076c-0.073,-0.164 -0.113,-0.351 -0.125,-0.53c-0.036,-0.573 -0.05,-1.147 0.094,-1.71c0.122,-0.472 0.344,-0.884 0.703,-1.225c0.178,-0.168 0.379,-0.196 0.601,-0.191c0.046,0.001 0.092,-0.005 0.128,-0.007c-0.067,-0.37 -0.168,-0.728 -0.188,-1.09c-0.024,-0.453 0.022,-0.911 0.031,-1.367c0.003,-0.145 -0.028,-0.292 -0.021,-0.437c0.016,-0.309 0.008,-0.627 0.081,-0.925c0.17,-0.704 0.63,-1.229 1.161,-1.694c0.498,-0.436 1.002,-0.865 1.504,-1.296c0.041,-0.035 0.084,-0.071 0.132,-0.096c0.812,-0.418 1.619,-0.848 2.44,-1.249c0.666,-0.324 1.373,-0.527 2.113,-0.608c0.204,-0.023 0.389,-0.012 0.564,0.113c0.115,0.083 0.249,0.14 0.371,0.215c0.118,0.072 0.221,0.129 0.376,0.062c0.122,-0.054 0.262,-0.033 0.336,0.137c0.038,0.087 0.123,0.163 0.204,0.221c0.399,0.284 0.81,0.547 1.27,0.726c0.146,0.056 0.288,0.124 0.426,0.198c0.109,0.059 0.18,0.038 0.229,-0.071c0.153,-0.342 0.305,-0.684 0.458,-1.025c0.058,-0.131 0.102,-0.27 0.179,-0.39c0.05,-0.078 0.138,-0.152 0.224,-0.181c0.07,-0.023 0.191,-0.004 0.238,0.045c0.046,0.048 0.051,0.167 0.027,0.239c-0.103,0.304 -0.223,0.601 -0.336,0.901c-0.023,0.061 -0.04,0.124 -0.023,0.22c0.065,-0.037 0.134,-0.068 0.193,-0.112c0.326,-0.245 0.672,-0.448 1.088,-0.482c0.074,-0.006 0.218,0.039 0.219,0.065c0.004,0.103 -0.002,0.245 -0.066,0.306c-0.228,0.215 -0.481,0.403 -0.724,0.601c-0.04,0.032 -0.079,0.064 -0.11,0.143c0.173,-0 0.347,-0.016 0.518,0.004c0.201,0.023 0.401,0.065 0.594,0.126c0.064,0.021 0.153,0.13 0.144,0.184c-0.013,0.075 -0.096,0.167 -0.17,0.197c-0.285,0.112 -0.579,0.202 -0.868,0.303c-0.049,0.017 -0.093,0.048 -0.17,0.087l-0,0.002Zm-11.361,8.972c-0.014,0.047 -0.024,0.065 -0.024,0.083c0.005,0.73 -0,1.461 0.02,2.191c0.018,0.623 0.146,1.213 0.571,1.713c0.228,0.269 0.428,0.568 0.606,0.873c0.595,1.015 1.577,1.444 2.635,1.75c0.264,0.076 0.552,0.086 0.83,0.099c0.695,0.031 1.398,0.115 2.085,0.049c0.72,-0.069 1.426,-0.288 2.138,-0.442c0.136,-0.029 0.229,-0.103 0.27,-0.245c0.042,-0.15 0.152,-0.187 0.303,-0.175c0.073,0.005 0.174,-0.024 0.222,-0.075c0.432,-0.465 0.859,-0.934 1.278,-1.41c0.176,-0.199 0.368,-0.399 0.483,-0.632c0.43,-0.876 0.83,-1.764 1.239,-2.649c0.03,-0.064 0.042,-0.135 0.08,-0.262c-0.105,0.055 -0.165,0.072 -0.203,0.109c-0.52,0.5 -1.178,0.646 -1.858,0.774c-0.569,0.106 -1.001,-0.063 -1.352,-0.502c-0.042,-0.053 -0.091,-0.102 -0.145,-0.144c-0.123,-0.096 -0.242,-0.202 -0.377,-0.278c-0.644,-0.361 -1.054,-0.898 -1.204,-1.618c-0.051,-0.248 -0.038,-0.509 -0.058,-0.821c-0.593,0.064 -1.184,0.129 -1.755,0.191c0.021,0.245 0.101,0.466 0.044,0.641c-0.206,0.625 -0.422,1.258 -1.01,1.654c-0.153,0.102 -0.306,0.205 -0.465,0.298c-1.472,0.861 -3.045,0.392 -3.923,-0.618c-0.147,-0.169 -0.274,-0.354 -0.429,-0.554l-0.001,-0Zm-0.209,-5.161c-0.046,0.839 -0.089,1.633 -0.136,2.478c0.183,-0.235 0.303,-0.438 0.469,-0.592c0.253,-0.236 0.546,-0.429 0.809,-0.656c0.238,-0.205 0.518,-0.319 0.815,-0.339c0.419,-0.029 0.843,0.01 1.265,0c0.667,-0.016 1.191,0.271 1.66,0.717c0.424,0.402 0.628,0.917 0.806,1.449c0.053,0.159 0.113,0.208 0.29,0.161c0.54,-0.142 1.084,-0.275 1.653,-0.231c0.048,0.004 0.127,-0.081 0.15,-0.141c0.175,-0.451 0.332,-0.909 0.515,-1.357c0.04,-0.099 0.146,-0.197 0.245,-0.24c0.543,-0.237 1.119,-0.351 1.708,-0.379c1.008,-0.048 1.96,0.113 2.76,0.794c0.021,0.018 0.055,0.02 0.11,0.039c-0.055,-0.314 -0.099,-0.603 -0.161,-0.888c-0.018,-0.079 -0.076,-0.183 -0.144,-0.213c-0.609,-0.269 -1.116,-0.685 -1.596,-1.129c-0.199,-0.185 -0.388,-0.415 -0.497,-0.661c-0.273,-0.616 -0.497,-1.253 -0.742,-1.882c-0.021,-0.053 -0.052,-0.102 -0.087,-0.171c-0.073,0.061 -0.129,0.1 -0.175,0.148c-0.281,0.297 -0.566,0.59 -0.838,0.896c-0.391,0.441 -0.792,0.866 -1.333,1.129c-0.614,0.298 -1.226,0.597 -1.839,0.895c-0.608,0.296 -1.242,0.479 -1.925,0.479c-0.237,-0 -0.475,0.042 -0.713,0.066c-1.031,0.103 -2.058,0.168 -3.069,-0.371l0,-0.001Zm1.412,1.793c-0.046,0.019 -0.145,0.032 -0.206,0.088c-0.196,0.179 -0.394,0.361 -0.559,0.568c-0.111,0.139 -0.233,0.32 -0.235,0.484c-0.005,0.488 -0.006,0.987 0.088,1.463c0.121,0.621 0.545,1.052 1.086,1.368c0.493,0.287 1.042,0.401 1.585,0.525c0.15,0.034 0.333,0.002 0.48,-0.052c0.415,-0.154 0.779,-0.387 1.042,-0.758c0.292,-0.414 0.467,-0.872 0.578,-1.365c0.079,-0.345 0.063,-0.666 -0.122,-0.965c-0.165,-0.266 -0.34,-0.528 -0.532,-0.774c-0.577,-0.737 -1.347,-1.081 -2.277,-1.095c-0.271,-0.005 -0.466,0.108 -0.566,0.353c-0.063,0.152 -0.148,0.222 -0.361,0.161l-0.001,-0.001Zm11.46,2.708l-0.025,-0c0,-0.116 0.002,-0.232 0,-0.348c-0.012,-0.722 -0.152,-1.42 -0.399,-2.099c-0.058,-0.159 -0.148,-0.26 -0.32,-0.304c-0.304,-0.077 -0.609,-0.155 -0.902,-0.265c-0.476,-0.179 -0.959,-0.143 -1.444,-0.079c-0.082,0.011 -0.174,0.053 -0.233,0.11c-0.409,0.396 -0.771,0.829 -1.012,1.352c-0.374,0.814 -0.242,1.671 0.431,2.258c0.395,0.346 0.869,0.603 1.317,0.886c0.234,0.147 0.505,0.177 0.772,0.116c0.411,-0.095 0.818,-0.212 1.227,-0.313c0.36,-0.088 0.553,-0.288 0.585,-0.659c0.018,-0.217 0.003,-0.436 0.003,-0.654l-0,-0.001Zm-9.597,7.49c-0.01,0.016 -0.02,0.032 -0.03,0.048c0.552,0.646 1.093,1.303 1.663,1.935c0.312,0.345 0.697,0.612 1.146,0.762c0.083,0.028 0.217,0.025 0.279,-0.024c0.835,-0.656 1.565,-1.4 1.964,-2.411c0.021,-0.052 0.032,-0.108 0.061,-0.211c-0.871,0.234 -1.713,0.287 -2.569,0.253c-0.851,-0.034 -1.703,-0.023 -2.513,-0.351l-0.001,-0.001Zm-3.837,-8.628c-0.079,-0.272 -0.179,-0.542 -0.43,-0.728c-0.129,-0.096 -0.239,-0.1 -0.363,0.014c-0.246,0.23 -0.407,0.51 -0.503,0.828c-0.18,0.598 -0.191,1.212 -0.113,1.823c0.076,0.59 0.498,1.011 1.08,1.144c0.334,0.076 0.655,-0.18 0.633,-0.521c-0.039,-0.612 -0.095,-1.223 -0.136,-1.834c-0.008,-0.123 -0.059,-0.177 -0.173,-0.174c-0.216,0.006 -0.435,0.004 -0.649,0.031c-0.157,0.019 -0.233,-0.056 -0.278,-0.178c-0.048,-0.129 0.039,-0.192 0.147,-0.22c0.255,-0.064 0.511,-0.12 0.786,-0.184l-0.001,-0.001Zm7.517,-8.872c-0.108,0 -0.228,-0.031 -0.322,0.005c-0.731,0.278 -1.459,0.569 -2.186,0.859c-0.045,0.018 -0.111,0.061 -0.113,0.096c-0.012,0.205 -0.162,0.266 -0.314,0.334c-0.836,0.376 -1.568,0.904 -2.23,1.533c-0.033,0.032 -0.057,0.071 -0.086,0.107c1.615,-1.226 3.491,-1.96 5.25,-2.934l0.001,0Zm6.714,10.585c0.02,0.018 0.041,0.037 0.061,0.056c0.164,-0.164 0.338,-0.32 0.493,-0.493c0.483,-0.54 0.342,-1.439 0.151,-1.84c-0.075,-0.156 -0.2,-0.186 -0.337,-0.084c-0.221,0.167 -0.304,0.414 -0.41,0.707c0.192,-0.044 0.331,-0.104 0.466,-0.098c0.111,0.005 0.279,0.062 0.314,0.143c0.061,0.14 -0.052,0.253 -0.203,0.296c-0.124,0.035 -0.25,0.068 -0.375,0.099c-0.125,0.031 -0.18,0.083 -0.139,0.23c0.09,0.326 0.117,0.657 -0.022,0.984l0.001,-0Zm-10.07,-6.547c1.346,-0.696 2.732,-1.318 3.934,-2.256c-1.455,0.505 -2.773,1.247 -3.934,2.256Zm4.524,-1.243l-0.044,-0.055c-0.121,0.094 -0.243,0.188 -0.364,0.282c-0.367,0.281 -0.717,0.588 -1.106,0.835c-0.389,0.248 -0.821,0.428 -1.228,0.651c-0.266,0.145 -0.52,0.312 -0.78,0.469c0.012,0.019 0.024,0.038 0.036,0.057c1.317,-0.505 2.537,-1.161 3.487,-2.238l-0.001,-0.001Zm-2.196,-2.994c-0.007,-0.027 -0.014,-0.055 -0.021,-0.084c-0.169,0.032 -0.385,0.01 -0.495,0.108c-0.13,0.113 -0.242,0.135 -0.39,0.141c-0.115,0.004 -0.23,0.033 -0.341,0.065c-0.649,0.183 -1.172,0.6 -1.739,0.937c-0.004,0.002 0.002,0.022 0.006,0.058c0.998,-0.41 1.989,-0.817 2.98,-1.225Zm-1.342,2.881c-1.067,0.602 -2.021,1.346 -2.839,2.266c0.197,-0.086 0.386,-0.19 0.542,-0.329c0.41,-0.368 0.793,-0.767 1.212,-1.124c0.344,-0.293 0.722,-0.544 1.085,-0.813Zm7.686,2.038c0.019,-0.018 0.037,-0.035 0.055,-0.052c-0.326,-0.442 -0.654,-0.883 -0.981,-1.324c-0.029,0.017 -0.057,0.034 -0.086,0.051c0.17,0.358 0.324,0.723 0.516,1.069c0.097,0.175 0.286,0.261 0.496,0.256Zm-4.576,-3.515c0.266,-0.12 0.516,-0.222 0.753,-0.349c0.049,-0.027 0.049,-0.146 0.072,-0.222c-0.092,-0.014 -0.193,-0.061 -0.271,-0.036c-0.134,0.043 -0.248,0.142 -0.379,0.199c-0.164,0.072 -0.221,0.185 -0.175,0.408Zm5.968,18.431c0.046,-0.662 0.167,-1.323 0.077,-1.987c-0.026,-0 -0.052,-0.001 -0.077,-0.001l-0,1.988Zm-0.222,-14.909c0.043,0.191 0.055,0.396 0.135,0.569c0.101,0.217 0.058,0.387 -0.054,0.572c-0.045,0.074 -0.049,0.172 -0.072,0.258c0.356,-0.292 0.348,-1.101 -0.008,-1.399l-0.001,-0Zm-4.087,-3.689c-0.147,-0.071 -0.218,-0.108 -0.291,-0.139c-0.119,-0.05 -0.181,0.006 -0.204,0.12c-0.038,0.187 -0.074,0.376 -0.118,0.598c0.2,-0.188 0.385,-0.364 0.613,-0.579Zm-13.311,17.854c0.085,-0.463 0.17,-0.925 0.255,-1.388c-0.273,0.43 -0.297,0.905 -0.255,1.388Zm13.419,-17.788c-0.009,0.011 -0.019,0.021 -0.028,0.032c0.015,0.019 0.027,0.039 0.045,0.055c0.246,0.218 0.249,0.245 0.077,0.52c-0.06,0.097 -0.111,0.199 -0.165,0.299c0.02,0.012 0.039,0.024 0.058,0.036c0.16,-0.188 0.318,-0.375 0.494,-0.581c-0.176,-0.131 -0.328,-0.246 -0.481,-0.36l-0,-0.001Zm-11.321,19.847c0.024,-0.001 0.048,-0.002 0.072,-0.003c-0.025,-0.538 -0.051,-1.076 -0.077,-1.615c-0.019,0.001 -0.039,0.002 -0.059,0.003c0.021,0.538 0.043,1.077 0.064,1.615Zm14.449,-15.501c0.016,-0.013 0.033,-0.026 0.049,-0.038c-0.052,-0.139 -0.105,-0.278 -0.166,-0.438c-0.107,0.086 -0.183,0.146 -0.28,0.223c0.149,0.096 0.273,0.174 0.397,0.253l-0,-0Zm-15.227,17.304c0.026,0.001 0.052,0.002 0.077,0.003c-0.022,-0.396 -0.043,-0.793 -0.065,-1.189l-0.011,-0l-0,1.186l-0.001,0Zm0.304,-6.107c-0.303,-0.025 -0.425,0.04 -0.519,0.276c0.192,-0.068 0.388,-0.065 0.519,-0.276Zm15.266,-11.851c0.034,-0.371 -0.064,-0.514 -0.306,-0.471c0.098,0.151 0.191,0.294 0.306,0.471Zm-12.645,0.329l0.033,0.085c0.088,-0.022 0.23,-0.018 0.256,-0.071c0.056,-0.114 -0.032,-0.2 -0.153,-0.251c-0.05,0.087 -0.093,0.162 -0.136,0.237Z"/>
        <path d="M6.015,22.09c-0.081,0.444 -0.162,0.887 -0.244,1.331" style="fill:#fff;"/>
        <path d="M14.635,21.217c-0.804,0.012 -1.61,0 -2.395,-0.208c-0.164,-0.044 -0.311,-0.153 -0.469,-0.225c-0.104,-0.047 -0.219,-0.072 -0.321,-0.123c-0.064,-0.032 -0.13,-0.087 -0.16,-0.149c-0.012,-0.027 0.056,-0.125 0.105,-0.141c0.144,-0.051 0.174,-0.124 0.124,-0.267c-0.018,-0.052 0.019,-0.144 0.061,-0.192c0.148,-0.17 0.364,-0.18 0.57,-0.223c1.132,-0.237 2.268,-0.459 3.391,-0.732c1.293,-0.315 2.603,-0.443 3.927,-0.453c0.217,-0.002 0.436,0.063 0.651,0.109c0.118,0.026 0.161,0.111 0.144,0.237c-0.034,0.246 -0.042,0.497 -0.087,0.74c-0.016,0.084 -0.093,0.196 -0.168,0.222c-1.3,0.461 -2.603,0.911 -3.906,1.36c-0.085,0.03 -0.18,0.042 -0.27,0.042c-0.399,0.004 -0.798,0.002 -1.197,0.002l0,0.001Zm3.03,-0.936c0.002,-0.022 0.005,-0.044 0.007,-0.066c-0.114,-0.057 -0.226,-0.157 -0.343,-0.164c-0.921,-0.053 -1.737,0.23 -2.451,0.811c-0.003,0.002 0.001,0.012 0.004,0.05c0.969,-0.041 1.87,-0.361 2.783,-0.63l-0,-0.001Zm-0.443,-1.226c-0.01,-0.018 -0.019,-0.036 -0.029,-0.054c-0.287,0.046 -0.576,0.087 -0.861,0.142c-0.079,0.015 -0.211,0.073 -0.211,0.11c0.002,0.09 0.043,0.211 0.112,0.259c0.086,0.063 0.226,0.11 0.323,0.086c0.304,-0.074 0.514,-0.28 0.666,-0.543l0,0Zm-1.557,0.258c-0.234,0.051 -0.453,0.104 -0.674,0.144c-0.116,0.022 -0.202,0.074 -0.146,0.189c0.042,0.085 0.139,0.189 0.22,0.197c0.191,0.019 0.534,-0.294 0.6,-0.53Zm-2.19,0.477c0.259,0.204 0.497,0.281 0.774,0.161c0.145,-0.062 0.192,-0.158 0.121,-0.321c-0.288,0.051 -0.572,0.102 -0.895,0.159l0,0.001Zm-0.781,0.614c0.201,0.038 0.363,0.046 0.506,0.102c0.192,0.075 0.333,0.011 0.469,-0.085c-0.173,-0.095 -0.343,-0.192 -0.516,-0.28c-0.038,-0.019 -0.106,-0.027 -0.136,-0.005c-0.105,0.073 -0.199,0.162 -0.323,0.268Zm5.086,-1.424c0.075,0.187 0.176,0.272 0.352,0.266c0.23,-0.01 0.42,-0.122 0.494,-0.311c-0.027,-0.003 -0.051,-0.011 -0.076,-0.009c-0.247,0.017 -0.494,0.034 -0.77,0.054l-0,-0Zm1.37,-0.089c0.032,0.122 0.057,0.219 0.095,0.366c0.127,-0.128 0.223,-0.225 0.32,-0.322c-0.012,-0.015 -0.024,-0.029 -0.036,-0.044l-0.379,0Z"/>
        <path d="M14.613,16.898c0,0.123 -0.008,0.246 0.003,0.368c0.014,0.172 0.128,0.249 0.266,0.152c0.237,-0.168 0.466,-0.144 0.718,-0.065c0.142,0.045 0.294,0.058 0.443,0.082c0.297,0.046 0.578,0.034 0.837,-0.162c0.182,-0.138 0.393,-0.226 0.613,-0.036c0.119,-0.115 0.189,-0.222 0.108,-0.383c-0.025,-0.05 -0.031,-0.162 -0.012,-0.171c0.079,-0.036 0.174,-0.064 0.257,-0.053c0.052,0.007 0.133,0.091 0.132,0.138c-0.005,0.29 -0.045,0.576 -0.261,0.798c-0.087,0.088 -0.177,0.127 -0.28,0.007c-0.11,-0.126 -0.253,-0.133 -0.393,-0.056c-0.166,0.09 -0.327,0.191 -0.488,0.291c-0.107,0.066 -0.198,0.057 -0.325,0.023c-0.344,-0.094 -0.699,-0.157 -1.053,-0.197c-0.11,-0.012 -0.247,0.074 -0.349,0.146c-0.266,0.19 -0.428,0.137 -0.471,-0.184c-0.026,-0.187 -0.044,-0.38 -0.024,-0.567c0.007,-0.068 0.133,-0.123 0.205,-0.184c0.025,0.017 0.05,0.036 0.074,0.054l0,-0.001Z"/>
        <path d="M16.337,14.616c-0.003,-0.039 -0.021,-0.088 -0.004,-0.116c0.031,-0.051 0.077,-0.108 0.129,-0.124c0.025,-0.008 0.106,0.064 0.113,0.108c0.086,0.522 0.165,1.044 0.235,1.568c0.007,0.046 -0.05,0.137 -0.092,0.146c-0.128,0.029 -0.26,0.002 -0.288,-0.153c-0.027,-0.147 -0.024,-0.3 -0.033,-0.45c-0.019,-0.327 -0.037,-0.653 -0.055,-0.98l-0.005,0l-0,0.001Z"/>
        <path d="M11.58,15.469c0.102,-0.184 0.255,-0.199 0.417,-0.191c0.151,0.007 0.301,0.022 0.45,0.014c0.051,-0.003 0.099,-0.068 0.147,-0.105c-0.059,-0.04 -0.117,-0.112 -0.178,-0.115c-0.168,-0.007 -0.338,0.026 -0.507,0.026c-0.446,-0 -0.719,-0.234 -0.803,-0.674c-0.03,-0.155 -0.049,-0.311 -0.086,-0.463c-0.061,-0.248 0.028,-0.429 0.219,-0.583c0.261,-0.209 0.564,-0.304 0.888,-0.327c0.227,-0.017 0.458,-0.002 0.686,0.005c0.304,0.011 0.475,0.205 0.518,0.476c0.048,0.306 0.055,0.623 0.046,0.934c-0.005,0.169 -0.089,0.316 -0.281,0.388c-0.067,0.025 -0.125,0.146 -0.139,0.231c-0.095,0.546 -0.091,0.547 -0.635,0.54c-0.252,-0.003 -0.511,0.023 -0.742,-0.156Zm1.413,-1.305c-0.025,-0.175 -0.047,-0.349 -0.077,-0.523c-0.024,-0.143 -0.099,-0.241 -0.26,-0.237c-0.221,0.005 -0.445,-0.011 -0.662,0.023c-0.468,0.074 -0.676,0.458 -0.521,0.894c0.085,0.238 0.242,0.386 0.486,0.375c0.256,-0.011 0.51,-0.071 0.762,-0.125c0.213,-0.046 0.301,-0.19 0.272,-0.408l0,0.001Z"/>
        <path d="M19.729,15.453c0.394,0.136 0.73,0.263 1.102,0.14c0.048,-0.016 0.154,0.01 0.165,0.04c0.019,0.057 0.011,0.149 -0.025,0.195c-0.13,0.164 -0.322,0.259 -0.519,0.224c-0.351,-0.061 -0.699,-0.154 -1.036,-0.27c-0.079,-0.027 -0.141,-0.2 -0.148,-0.31c-0.007,-0.118 -0.047,-0.17 -0.139,-0.224c-0.4,-0.235 -0.628,-0.577 -0.648,-1.052c-0.007,-0.167 0.038,-0.299 0.152,-0.425c0.135,-0.148 0.329,-0.284 0.211,-0.541c-0.01,-0.022 0.057,-0.096 0.102,-0.123c0.233,-0.14 0.49,-0.184 0.756,-0.15c0.311,0.041 0.622,0.087 0.93,0.145c0.372,0.07 0.628,0.471 0.537,0.847c-0.085,0.349 -0.183,0.695 -0.289,1.038c-0.021,0.067 -0.103,0.136 -0.172,0.161c-0.259,0.091 -0.523,0.164 -0.786,0.244c-0.048,0.015 -0.096,0.031 -0.193,0.062l-0,-0.001Zm0.158,-0.466c0.097,-0.022 0.269,-0.058 0.439,-0.105c0.046,-0.012 0.109,-0.047 0.122,-0.086c0.099,-0.288 0.221,-0.574 0.268,-0.871c0.044,-0.276 -0.045,-0.357 -0.316,-0.459c-0.116,-0.044 -0.236,-0.078 -0.352,-0.121c-0.353,-0.132 -0.627,-0.009 -0.844,0.27c-0.095,0.123 -0.173,0.261 -0.24,0.402c-0.034,0.071 -0.053,0.172 -0.03,0.244c0.151,0.47 0.375,0.713 0.953,0.726Z"/>
        <path d="M12.231,14.191c-0.086,-0.088 -0.142,-0.146 -0.199,-0.204c0.076,-0.06 0.145,-0.147 0.231,-0.17c0.038,-0.01 0.154,0.108 0.155,0.17c0.002,0.057 -0.102,0.117 -0.187,0.204l-0,0Z"/>
        <path d="M20.044,13.979c-0.001,0.193 -0.072,0.254 -0.198,0.244c-0.104,-0.009 -0.206,-0.022 -0.2,-0.175c0.006,-0.172 0.14,-0.18 0.244,-0.18c0.061,-0.001 0.122,0.087 0.153,0.111l0.001,-0Z"/>
    </g>
</svg>
