<svg viewBox="0 0 32 32" xmlns="http://www.w3.org/2000/svg"><path fill="#FBFAF7" fill-rule="nonzero" d="M0 0h32v32H0z"/><g fill="#161718" fill-rule="nonzero"><path d="M22.488 5.264c.09.068.155.12.223.169.528.38 1.033.792 1.368 1.356.181.303.245.676.428.978.182.299.481.528.667.824.306.491.34 1.038.19 1.594-.167.615-.351 1.227-.504 1.846-.049.194-.028.405-.041.68.162-.106.265-.171.365-.239.416-.281.833-.19 1.039.265.374.829.404 2.047-.436 2.761-.288.247-.612.451-.915.68a.35.35 0 0 0-.123.185c-.328 1.417-1.061 2.662-1.714 3.938-.136.266-.412.461-.616.696-.177.204-.341.417-.553.68l.974.231c.062.015.138.001.187.034.373.248.784.222 1.203.187.361-.029.701.029.962.322.038.043.111.062.172.076 1.205.286 1.866 1.045 2.107 2.259.307 1.554.487 3.122.63 4.695.056.596.117 1.192.164 1.788.017.227.004.457.004.699h-.538v-1.875l-.104-.013c-.019.111-.054.221-.056.331-.004.494-.002.988-.002 1.525h-1.853l-.076-.314-.04.005c-.009.108-.017.215-.025.348-.199 0-.398.017-.592-.003-.303-.03-.368-.196-.192-.44.016-.023.026-.054.04-.083-.373-.126-.426-.07-.486.53l-.945-.058c.036-.407.077-.792.102-1.178.105-1.592.221-3.185.303-4.78.053-1.027.05-2.058.082-3.088.007-.196-.071-.302-.251-.34-.664-.144-1.326-.289-1.991-.421-.067-.014-.169.034-.224.086q-.581.567-1.149 1.151a.6.6 0 0 0-.121.251c-.143.525-.271 1.05-.418 1.574-.233.839-.636 1.572-1.313 2.15-.393.337-.73.741-1.132 1.066-.285.232-.628.405-.964.56-.119.056-.321.035-.444-.03-1.38-.729-2.465-1.793-3.319-3.078-.552-.828-1.004-1.722-1.498-2.586-.02-.034-.053-.074-.049-.108.05-.375-.249-.562-.433-.808-.339-.452-.687-.899-1.046-1.366-.53.262-1.073.532-1.613.801-.237.118-.469.244-.709.35-.154.066-.213.156-.205.324q.087 1.805.158 3.612c.045 1.228.073 2.456.115 3.686.021.629.045 1.259.081 1.889.013.234-.064.349-.322.322-.045-.176-.048-.401-.332-.388-.031.001-.074-.091-.1-.146-.033-.064-.054-.138-.125-.193v.657c-.328.148-.334.144-.475-.231-.176.139-.4.011-.441-.267-.052-.363-.091-.728-.135-1.092-.038-.315-.076-.632-.154-.952-.012.031-.028.061-.029.091-.022.752.015 1.499.152 2.24.022.117.095.26-.101.311-.193.049-.225-.089-.27-.221-.019-.051-.046-.098-.079-.164-.062.034-.112.065-.167.092q-.301.158-.35-.173c-.056-.369-.112-.74-.219-1.115-.009.076-.023.151-.022.227.002.32.018.639.011.959-.005.365-.031.379-.44.368-.004-.082-.011-.165-.011-.248 0-1.31-.074-2.625.024-3.926.073-.977.014-1.945.062-2.916q.014-.263.059-.522c.128-.699.465-1.253 1.125-1.572.936-.452 1.879-.896 2.817-1.352.493-.241.979-.498 1.481-.755-.031-.078-.048-.137-.076-.191a4.8 4.8 0 0 1-.527-2.381c.012-.374.011-.374-.353-.356-.918.051-1.701-.415-2.075-1.259a1.8 1.8 0 0 1-.147-.62c-.041-.67-.058-1.342.11-2.001a2.93 2.93 0 0 1 .823-1.433c.208-.196.443-.229.702-.224.055.001.108-.005.151-.007-.079-.434-.197-.852-.221-1.275-.028-.53.026-1.067.037-1.6.003-.17-.033-.342-.025-.511.019-.362.009-.734.095-1.083.199-.824.737-1.437 1.359-1.982.582-.51 1.172-1.012 1.759-1.516.048-.04.099-.083.155-.113.949-.488 1.894-.992 2.854-1.46a7.5 7.5 0 0 1 2.472-.712c.24-.027.456-.013.661.133.134.096.29.163.434.251.138.084.258.151.44.073.142-.064.306-.039.393.16.044.101.143.19.238.258.466.333.947.64 1.486.85.171.065.337.145.498.231.128.069.21.045.268-.083l.536-1.199c.068-.153.119-.315.209-.456a.55.55 0 0 1 .263-.212c.081-.027.223-.005.278.053.054.056.059.195.032.28-.121.355-.261.702-.393 1.054-.027.071-.047.145-.027.257.076-.043.157-.08.226-.131.381-.286.786-.525 1.273-.564.086-.007.255.046.256.076.004.12-.003.286-.077.358-.267.251-.564.472-.848.703-.046.038-.092.075-.129.167.203 0 .407-.019.607.005q.354.042.695.148c.075.024.179.151.168.215a.36.36 0 0 1-.199.23c-.333.132-.677.236-1.016.355-.057.019-.108.056-.198.102zM9.196 15.761c-.017.055-.028.076-.028.097.006.854 0 1.709.023 2.563.021.73.171 1.42.668 2.005.267.315.5.664.709 1.021.697 1.188 1.846 1.69 3.083 2.047.309.089.645.102.971.116.814.037 1.635.135 2.439.058.843-.081 1.669-.337 2.502-.518a.38.38 0 0 0 .316-.286c.049-.176.177-.219.354-.205.086.006.204-.028.26-.088a81 81 0 0 0 1.495-1.649c.206-.234.431-.467.566-.74.502-1.025.971-2.063 1.448-3.099.036-.074.05-.158.095-.306-.124.063-.194.083-.238.127-.608.586-1.379.756-2.174.905-.666.125-1.171-.073-1.582-.587a1 1 0 0 0-.169-.168c-.144-.112-.283-.237-.441-.325-.754-.423-1.234-1.051-1.409-1.894-.06-.289-.044-.595-.068-.96l-2.053.223c.025.287.118.546.052.75-.242.732-.495 1.472-1.182 1.936-.179.119-.358.239-.544.348-1.723 1.008-3.563.459-4.59-.723-.173-.198-.321-.414-.502-.648zm-.245-6.038-.159 2.899c.215-.275.355-.513.549-.693.296-.276.639-.501.946-.767.278-.24.607-.373.954-.397.49-.034.986.012 1.48 0 .78-.019 1.393.318 1.942.839.496.471.735 1.073.943 1.696.062.186.132.242.339.188.632-.166 1.269-.322 1.935-.271.055.005.148-.094.174-.165.205-.527.389-1.063.603-1.587a.6.6 0 0 1 .287-.281 5.6 5.6 0 0 1 1.999-.443c1.179-.057 2.292.131 3.229.929.024.021.064.023.128.045-.064-.367-.116-.706-.189-1.039-.021-.092-.089-.213-.168-.249-.712-.315-1.306-.802-1.867-1.321-.233-.217-.454-.485-.581-.773-.32-.721-.582-1.466-.869-2.202-.024-.062-.061-.12-.101-.2-.086.071-.151.117-.205.172-.329.349-.662.691-.981 1.049-.457.516-.926 1.014-1.56 1.321q-1.076.523-2.151 1.048c-.711.346-1.453.56-2.252.56-.278 0-.556.049-.834.076-1.206.122-2.408.198-3.591-.433zm1.652 2.098c-.053.022-.169.037-.24.102-.23.21-.462.422-.655.665-.13.163-.273.374-.275.566-.006.571-.007 1.156.104 1.712.141.726.636 1.231 1.27 1.6.577.337 1.219.47 1.854.615.176.04.39.002.562-.061.486-.181.911-.452 1.219-.887.341-.484.546-1.021.676-1.597.093-.404.074-.779-.142-1.129a11 11 0 0 0-.623-.906c-.676-.862-1.576-1.265-2.664-1.28-.318-.007-.546.126-.663.412-.073.178-.172.26-.422.189zm13.408 3.168h-.029c0-.136.003-.272 0-.408a7.5 7.5 0 0 0-.467-2.455c-.068-.186-.173-.304-.374-.356a10 10 0 0 1-1.056-.31c-.557-.209-1.121-.167-1.689-.092a.5.5 0 0 0-.273.129c-.479.463-.902.97-1.183 1.581-.438.952-.284 1.955.504 2.642.462.404 1.017.705 1.54 1.037.274.171.591.207.904.136.481-.112.956-.249 1.435-.367.421-.103.647-.337.685-.771.021-.254.003-.51.003-.765zm-11.228 8.763-.035.056c.645.756 1.279 1.525 1.945 2.264.365.404.816.716 1.342.892.096.032.253.029.326-.028.976-.768 1.83-1.639 2.298-2.821.024-.062.037-.126.071-.248-1.02.274-2.004.337-3.006.296-.996-.038-1.992-.026-2.94-.41zM8.294 13.657c-.093-.318-.209-.634-.503-.852-.152-.112-.28-.117-.426.017a2.16 2.16 0 0 0-.588.969c-.21.699-.223 1.418-.132 2.133.089.69.582 1.182 1.264 1.338.39.089.766-.21.74-.61-.046-.716-.111-1.431-.159-2.145-.009-.144-.069-.208-.203-.204-.251.008-.509.005-.758.037-.184.022-.273-.066-.326-.209-.056-.151.045-.225.172-.257.299-.076.598-.14.92-.216zm8.794-10.379c-.126 0-.266-.037-.376.005-.856.325-1.707.666-2.558 1.006-.052.021-.13.071-.133.112-.013.239-.189.311-.367.391-.978.44-1.834 1.056-2.609 1.792-.039.038-.067.084-.1.126 1.89-1.434 4.084-2.293 6.142-3.432zm7.855 12.383.071.066c.193-.192.397-.374.577-.577.566-.631.401-1.683.177-2.152-.088-.183-.234-.218-.394-.099-.258.196-.355.484-.48.827.225-.051.388-.121.546-.115.129.007.326.073.367.169.072.163-.061.295-.238.346q-.218.06-.439.116c-.146.035-.21.096-.162.268.106.382.137.769-.026 1.151zM13.162 8.002c1.574-.815 3.197-1.542 4.603-2.64a13.9 13.9 0 0 0-4.603 2.64m5.293-1.454-.052-.065q-.213.164-.425.33c-.43.329-.839.688-1.294.977s-.961.5-1.438.762c-.31.169-.608.365-.912.549l.043.066c1.541-.591 2.968-1.359 4.079-2.618zm-2.57-3.503-.024-.099c-.197.038-.45.012-.579.127-.153.132-.283.158-.457.164a1.7 1.7 0 0 0-.398.076c-.76.215-1.372.703-2.035 1.097-.005.002.003.025.007.068zm-1.57 3.37c-1.248.705-2.365 1.575-3.321 2.651.23-.1.452-.222.634-.385.479-.43.928-.897 1.418-1.315.402-.343.845-.636 1.269-.951m8.993 2.384.064-.06q-.573-.776-1.148-1.549l-.1.059c.199.419.379.846.603 1.251.114.204.336.306.581.299m-5.354-4.112c.311-.14.604-.259.881-.408.058-.032.058-.171.085-.26-.109-.017-.227-.071-.318-.042-.157.05-.289.166-.443.232-.191.085-.258.218-.205.478m6.983 21.564c.053-.775.194-1.547.09-2.325l-.09-.001zm-.26-17.443c.05.224.065.463.158.666.118.254.068.452-.063.669-.053.087-.058.2-.085.302.417-.342.408-1.289-.009-1.637zm-4.782-4.316c-.172-.083-.255-.127-.341-.163-.139-.058-.211.007-.238.141-.045.218-.087.44-.138.699zM4.321 25.38l.299-1.623c-.32.502-.348 1.059-.299 1.623M20.022 4.569l-.034.037c.018.022.033.046.054.064.287.255.29.288.089.609-.07.114-.129.233-.193.35q.035.02.068.042l.578-.68c-.206-.152-.384-.287-.562-.421zM6.776 27.79l.085-.004-.09-1.89-.069.004zM23.682 9.654l.056-.044-.193-.514c-.126.102-.215.172-.329.262zM5.865 29.899l.091.003-.076-1.391h-.013v1.388zm.357-7.145c-.355-.029-.498.047-.608.323.225-.079.454-.076.608-.323M24.083 8.888c.04-.434-.075-.601-.359-.551zm-14.795.385.039.1c.103-.026.269-.022.3-.083.064-.134-.038-.234-.18-.294z"/><path d="m4.583 24.093-.286 1.558m10.37-2.579c-.939.014-1.883 0-2.801-.244-.193-.051-.364-.178-.549-.262-.121-.056-.256-.085-.375-.144a.4.4 0 0 1-.187-.175c-.015-.031.064-.146.122-.165.168-.06.204-.144.145-.312-.021-.061.022-.169.071-.224.174-.2.427-.212.667-.262 1.325-.277 2.653-.537 3.967-.856 1.513-.369 3.047-.518 4.595-.53.254-.002.51.073.762.128.138.03.188.129.168.277-.04.287-.049.581-.101.865-.019.099-.109.23-.197.261-1.521.539-3.046 1.065-4.57 1.591a1 1 0 0 1-.316.049c-.467.004-.933.002-1.401.002zm3.545-1.095.009-.077c-.133-.067-.265-.184-.402-.192-1.077-.062-2.032.269-2.867.949-.003.002.001.013.005.058 1.133-.048 2.188-.422 3.255-.737zm-.517-1.434-.035-.064c-.335.055-.673.103-1.006.167-.093.017-.248.085-.248.128.003.106.051.247.131.303.101.074.265.129.378.101.355-.086.602-.328.78-.635m-1.822.301c-.274.06-.53.122-.789.17-.135.025-.236.085-.171.22.049.099.163.222.258.231.223.022.624-.345.702-.621m-2.563.558c.304.24.582.33.906.189.17-.073.225-.184.142-.376l-1.048.186zm-.913.719c.235.045.424.054.591.12.225.088.39.012.549-.101-.201-.11-.401-.223-.603-.327-.045-.022-.124-.031-.16-.006-.122.086-.232.19-.377.314m5.95-1.666c.088.219.206.318.412.311.27-.012.491-.142.578-.364-.031-.003-.06-.013-.089-.01-.288.019-.578.039-.901.063m1.604-.104.11.428.375-.377-.042-.051zm-5.309-2.331c0 .143-.009.287.003.429.017.202.15.292.312.178.277-.197.545-.168.839-.075.167.052.344.068.519.095.348.054.676.041.979-.189.214-.161.46-.265.717-.042.14-.135.222-.26.127-.449-.029-.058-.037-.189-.015-.199a.6.6 0 0 1 .301-.062c.061.007.156.106.155.161-.006.34-.053.674-.305.933-.103.104-.207.149-.328.009-.129-.148-.296-.156-.46-.066-.194.106-.383.224-.571.341-.126.077-.231.067-.38.027a8 8 0 0 0-1.232-.231c-.129-.014-.289.087-.409.171-.31.222-.501.16-.551-.215a2.8 2.8 0 0 1-.028-.664c.008-.079.156-.144.24-.215q.045.03.087.064zm2.017-2.671c-.003-.045-.024-.103-.004-.135.035-.06.089-.127.15-.145.029-.01.125.074.133.126q.15.915.275 1.835c.007.053-.059.16-.108.17-.15.033-.304.002-.338-.179-.031-.172-.028-.351-.038-.527l-.064-1.146zm-5.566.998c.119-.215.299-.233.488-.224.177.009.353.026.526.017.061-.003.116-.079.173-.122-.069-.047-.137-.132-.208-.135-.197-.009-.395.03-.594.03-.522 0-.841-.274-.939-.788-.035-.182-.057-.365-.101-.543-.071-.289.033-.501.256-.681.306-.245.661-.356 1.039-.383.266-.02.536-.002.803.005.355.014.556.241.606.558.057.358.064.728.053 1.093a.47.47 0 0 1-.328.454c-.078.029-.146.17-.163.27-.111.638-.106.64-.742.632-.295-.004-.598.026-.869-.183m1.654-1.526c-.029-.205-.055-.409-.091-.613-.027-.167-.115-.282-.304-.277-.258.006-.521-.012-.775.027-.547.087-.79.536-.609 1.046.099.279.283.451.568.439.3-.013.597-.084.892-.147.25-.053.352-.222.319-.477zm7.881 1.507c.46.159.854.309 1.289.164.056-.019.18.012.193.047.022.066.013.174-.029.228-.153.193-.377.303-.607.263a8 8 0 0 1-1.213-.317c-.092-.031-.165-.233-.172-.363-.009-.138-.056-.198-.163-.261-.469-.275-.735-.676-.758-1.232a.65.65 0 0 1 .177-.496c.158-.174.385-.333.247-.634-.011-.025.067-.112.119-.143.273-.164.574-.215.885-.176.363.049.727.102 1.088.17.436.081.735.551.628.991q-.15.613-.338 1.215c-.025.078-.121.158-.201.188-.303.106-.612.191-.919.285l-.226.072zm.184-.544c.114-.027.315-.068.514-.124.054-.013.128-.054.143-.1.116-.337.259-.671.313-1.019.051-.323-.052-.419-.369-.538-.136-.051-.277-.091-.412-.141-.414-.155-.734-.01-.988.316a2.7 2.7 0 0 0-.281.47.42.42 0 0 0-.034.286c.176.55.438.834 1.114.85"/><path d="m11.855 14.852-.233-.239c.089-.07.17-.172.271-.199.044-.011.18.127.181.199.002.067-.119.137-.219.239m9.141-.249c-.001.226-.085.298-.232.287-.121-.012-.241-.026-.233-.205.006-.202.163-.211.285-.211.071-.001.142.102.179.129z"/></g></svg>